<svg xmlns="http://www.w3.org/2000/svg" width="71" height="72"><path fill-rule="evenodd" fill="#F26522" d="M68.493 57.75c-4.119 4.594-15.323 13.867-31.926 13.867H17.471c-2.64 0-5.229-1.138-6.899-2.065 0 0 .098-.369-.871-.452v2.899H0V43.782h9.701v2.721a10.144 10.144 0 015.489-1.628l20.788-.018c5.823.026 10.132 4.023 10.011 9.341-.004.949-.149 1.622-.371 2.182 2.483-.48 5.542-1.75 7.982-4.884 2.712-3.823 5.906-4.627 8.11-4.627 2.605 0 4.928 1.122 6.129 2.084 1.714 1.374 2.883 2.617 3.013 4.214.147 1.789-1.127 3.21-2.359 4.583zM6.452 46.602H3.61v3.538h2.842v-3.538zm59.273 5.019c-.578-.464-2.163-1.341-4.015-1.341-2.054 0-3.86 1.084-5.369 3.224l-.045.061c-4.541 5.862-10.932 6.735-13.469 6.745l-.901.02H25.76c-.936 0-1.11-1.061-1.11-2.002 0-.942.174-1.707 1.11-1.707h15.232c.738-.019 1.605-.138 1.605-2.438.019-3.983-3.32-5.9-6.636-5.914l-20.779.018c-1.464 0-2.91.486-4.063 1.368l-.371.282c-.306.234-.028.34-1.048.335v15.035l.025-.002c1.095 0 .711.113 1.009.334.032.024 3.508 2.566 6.737 2.566h19.096c15.09 0 25.593-8.485 29.409-12.741.41.136 1.501-1.675 1.497-2.017-.001-.018-.049-.464-1.748-1.826zm-30.987-9.812V39.89c-1.612-.93-3.226-1.414-4.22-2.081l-.331-.222 1.048-3.669.605.36c1.81 1.122 2.691 1.143 4.02 1.143 1.443 0 2.376-.645 2.376-1.642 0 .181-.321-1.431-2.645-2.286-1.991-.922-5.122-2.293-5.122-5.303 0-2.732 1.688-4.676 4.435-5.328V18.44h3.346v2.21c1.299.097 2.42.87 3.5.943l.406.205-1.049 3.596-.727.176c-.652-.819-1.747-1.331-3.21-1.331-1.451 0-2.225.519-2.225 1.392 0 .759.726 1.296 2.99 2.207 3.363 1.27 4.805 2.956 4.805 5.636 0 2.672-1.813 4.745-3.91 5.384v2.951h-4.092zM56.582 19.39v24.594c-.402.385-.807.77-1.219 1.151a93.67 93.67 0 01-3.677 3.192V16.316L37.79 5.996 22.138 16.332v26.026h-4.895V19.656l-2.333 1.607-2.766-4.063 6.414-4.418V4.685h6.16v3.852L35.708.968 37.109 0l1.374.97 23.785 16.366-2.763 4.066-2.923-2.012z"/></svg>