<svg xmlns="http://www.w3.org/2000/svg" width="32" height="30"><path fill-rule="evenodd" fill="#D9D9D9" d="M31.18 29.958l-30.335.041H.843a.817.817 0 01-.578-.239c-.154-.154-.025-.363-.025-.581L0 11.384c0-.006 0-.01.1-.015.4-.256.027-.507.254-.664l4.602-3.186v-3.38a.82.82 0 01.82-.821h5.454L15.536.194a.817.817 0 01.933.002l4.484 3.122h5.27c.452 0 1.197.368 1.197.821v3.42l4.203 3.19c.163.114.273.511.322.456a.456.456 0 01.029.162l.025 17.768a.822.822 0 01-.819.823zm-2.444-1.639L16.12 18.431 3.242 28.354l25.494-.035zM4.956 9.514L2.26 11.381l2.696 1.867V9.514zm-3.315 3.435l.02 14.556 9.896-7.69-9.916-6.866zM16 1.868l-2.094 1.45h4.914L16 1.868zm9.403 3.092H6.595v9.423l6.321 4.376 2.593-2.015a.82.82 0 01.994-.008l.011.008 3.366 2 5.523-4.397V4.96zm2.017 4.598v3.647l2.241-1.823-2.241-1.824zm2.918 3.351l-9.893 6.89 9.913 7.703-.02-14.593zm-20.706.425a.82.82 0 01.819-.821h11.096a.82.82 0 010 1.642H10.451a.82.82 0 01-.819-.821zm11.915-3.448H10.451c-.452 0-.819-.368-.819-.236 0-1.038.367-1.406.819-1.406h11.096c.453 0 .82.368.82 1.406 0-.132-.367.236-.82.236z"/></svg>