<svg version="1.0" xmlns="http://www.w3.org/2000/svg" width="481.333" height="481.333" viewBox="0 0 361 361"><path d="M68.1 120.9c-.9.6.9 2.5 5.6 6.2 3.7 2.9 7 5.6 7.3 5.9.3.3 3.4 2.8 7 5.5 3.6 2.8 7.1 5.6 7.8 6.2 1.8 1.7 3.2 1.6 3.2-.2 0-.8-.3-1.5-.7-1.5-.5 0-2.5-1.6-4.5-3.5-2.1-1.8-3.8-3.2-3.8-2.9 0 .3-.6-.1-1.4-.8-.7-.8-3.2-3-5.6-4.9-2.3-1.8-5.6-4.7-7.3-6.2-4.4-3.8-6.1-4.7-7.6-3.8zM55 122c0 .5.3 1 .8 1 .4 0 2.3 1.5 4.2 3.3 1.9 1.7 6 5.1 9 7.3 3 2.3 6.7 5.3 8.3 6.7 1.5 1.4 2.7 2.3 2.7 2 0-.3 1.4.9 3.2 2.6 3.3 3.2 5.9 2.9 3.9-.6-.6-1-1.1-1.4-1.1-1 0 .4-1.1-.2-2.5-1.5-1.3-1.3-3-2.8-3.7-3.3-.7-.6-5.9-4.7-11.6-9.3-9.6-7.6-13.2-9.6-13.2-7.2z"/><path d="M43 126.7c-1.9 1.5-4.1 3.3-4.8 4-.7.7-1.7 1.3-2.1 1.3-.5 0-2 1-3.4 2.2-1.4 1.3-4.7 3.9-7.4 5.8-2.6 1.9-5.4 4.1-6.1 4.7-.7.7-1.6 1.3-2 1.3-1.2 0-6.2 4.7-6.2 5.9 0 1.6 1.9 1 4.8-1.7 1.4-1.2 2.9-2.2 3.3-2.2.5 0 .9 9.7.9 21.5V191l-2.7.1c-1.6 0-5.2.1-8 .1-5.2 0-5.3.1-5.3 3 0 1.6.4 2.7.9 2.3.5-.3 1.3 0 1.7.6.4.8.9.7 1.5-.2.5-.8.9-1 .9-.4s2.3.9 5.5.7l5.5-.4.1 8.4c.1 4.5 0 9.8-.1 11.5-.3 5.5.6 6.8 4.4 6.8 1.9 0 3.8-.3 4.1-.7.9-.9 1.1-22.8.2-22.8-.5 0-.2-.7.7-1.5 2-2 33.5-2.2 33.7-.3 0 .7.2 9.3.2 19.2.2 16.9.3 17.9 2.2 18.6 1.1.3 3.1.4 4.5.1l2.5-.6v-19c0-17.5.1-19 1.8-18.9.9.1 1.7-.2 1.7-.8 0-.5.6-.5 1.4-.1.8.4 6.7.6 13.1.3 6.4-.3 11.9-.3 12.2 0 .7.7 248.2.7 249.4-.1.6-.3.9-1.7.7-3l-.3-2.3-137.5-.2c-75.6-.2-138.6-.3-140-.3l-2.5-.1v-20.9c0-11.5.3-21.3.7-21.6.4-.4 1.7.4 3 1.8 1.7 1.8 2.8 2.3 3.9 1.7 1.1-.8.8-1.4-1.6-3.4-1.6-1.4-3.7-3-4.5-3.8-.8-.7-5-3.9-9.3-7.1-4.2-3.2-7.7-6.2-7.7-6.8 0-.5-.6-.9-1.2-.9-.7 0-2.8-1.4-4.7-3-1.8-1.7-3.6-3-4-3-.3 0-2.2 1.2-4.1 2.7zm10 5.4c2.5 1.9 4.7 3.6 5 3.9.3.3 2.5 2.1 5 4s4.7 3.8 4.8 4.2c.2.5 1 .8 1.7.8s1.5.7 1.9 1.5c.4 1.2-.4 1.5-3.8 1.5h-4.3l.1 21.1c.1 11.6-.3 21.3-.7 21.6-.6.4-25.4.7-31.8.4-1.3-.1-1.5-2.7-1.5-21.2.1-23 .1-22.9-5.6-22.3-2 .2-2.5-.1-2.2-1.1.3-.8 1.3-1.7 2.2-2 1-.3 3.2-1.9 5-3.5 1.7-1.7 3.2-2.8 3.2-2.4 0 .4.8-.3 1.9-1.4 1-1.2 2.1-2.2 2.5-2.2.9 0 9-6.2 9.4-7.3.2-.4.9-.4 1.5.1.7.5 3.2 2.4 5.7 4.3z"/><path d="M42.6 141.6c-3.1 3-1.7 8 2.6 9.7 2.5.9 7.8-3.7 7.1-6.3-.3-1.1-1-2-1.5-2s-.7-.4-.4-.9c1.5-2.3-5.6-2.8-7.8-.5zm291.3 3.7c-.1 1.2-.2 3.3-.3 4.7-.1 1.8-.7 2.6-2.3 2.8-2 .3-2.3 1-2.3 4.3 0 3.6.2 4 2.3 3.7 2.1-.3 2.2 0 2.3 8.9.1 5.3.6 9.8 1.2 10.6.7.8.9 1.7.5 2-1.3 1.3 4 5.7 6.9 5.7 1.5 0 2.8.4 2.8 1 0 1.4 2 1.3 5.3-.3 2.2-1 2.7-1.8 2.5-4.2-.2-2.5-.8-3-2.8-3-4.9 0-5-.4-5-19.9v-18.3l-5.5-.1c-4.9 0-5.5.2-5.6 2.1zm-239.6 7.5c-1.3.2-2.3.7-2.3 1.2s-.6.7-1.4.4c-1.2-.5-2.3.8-2.4 3 0 .5-.6 1.2-1.3 1.7-1.8 1.1-1.5 21.9.3 23.1.7.4.9.8.4.8s-.1.9.9 2 2.1 1.7 2.6 1.5c.4-.3 1-.1 1.4.5.3.5 1.6 1 2.9 1 1.2 0 2.7.5 3.3 1.1.8.8 1.3.8 1.7 0 .4-.6 2.6-1.1 4.8-1.1 3.2 0 4.7-.6 7-3 1.5-1.7 2.5-3 2.2-3-.4 0-.1-.7.7-1.6 1.7-2.1 1.6-17.8-.1-19.9-.7-.8-.9-1.5-.5-1.5s-.4-1.2-1.8-2.6c-1.4-1.4-3.1-2.3-3.7-1.9-.5.3-1 .1-1-.4 0-.6-1.3-1.1-3-1.1-2.8 0-3 .2-3 4 0 2.7.4 3.9 1.3 3.7.9-.1 1.3 2.3 1.5 9.2.2 7.8 0 9.7-1.5 11.3-1 1.1-1.7 2.8-1.5 3.8.2 1-.2 2.1-.8 2.5-.6.4-1-.5-1-2.4 0-1.6-.5-3.3-1.1-3.6-2.6-1.7-4.9-15.7-2.7-17.1.4-.3.8-1.4.8-2.4 0-1.3.5-1.7 1.5-1.4.9.4 1.5 0 1.6-1 .4-5.3.2-5.9-1.6-6.5-1.1-.4-3-.5-4.2-.3zm33.2 0l-5 .3.1 14.2c.2 16.1.6 18 4 19.6 3.1 1.4 13.4 1.5 13.5.1.1-.6.2-1.7.2-2.5 0-2.9-.3-3.4-1.6-2.9-.7.2-2.1-.2-3.1-.9-1.6-1.2-1.8-3-2-14.4 0-7.2-.3-13.3-.6-13.5-.3-.2-2.7-.2-5.5 0zm36.2 1.2c-.7.9-2 1.9-3.1 2.3-1 .4-1.6 1.3-1.2 2.2.3.8.1 1.7-.4 2-1.3.8-1.3 5.5.1 5.5.5 0 .7.5.4 1-.3.6.5 1.4 1.9 2 1.4.5 2.6 1.4 2.6 2 0 .5 1.1 1 2.4 1 1.4 0 2.8.5 3.2 1.1.3.6 1.5.9 2.5.6 1.1-.3 1.9-.1 1.9.4s.5.9 1.1.9c.6 0 1.7.7 2.5 1.5 1.2 1.2 1.2 1.8.2 3.5-.7 1.1-1.9 1.8-2.5 1.5-.9-.3-1.3.8-1.3 3.5 0 4 1.6 6.2 3 4 .4-.7 2.1-1.3 3.6-1.3 5.1 0 8-3 9-9.3.3-2.4-5-8.9-6.6-7.9-.5.3-1 .1-1-.4 0-.6-.7-1.1-1.5-1.1s-1.5-.5-1.5-1c0-.6-1.1-.8-2.5-.6-1.8.3-2.5 0-2.5-1 0-.8-.5-1.2-1-.9-.9.6-4-1.7-4-2.9 0-.3.8-1.4 1.8-2.4 1.1-1.1 1.8-3 1.7-4.3-.1-1.9-.9-2.5-3.9-3-2.8-.5-4-.2-4.9 1.1z"/><path d="M177.3 152.8c-3.1.3-3.3.5-3.3 4.3 0 3.6.2 4 2.3 3.7 1.6-.2 2.2.2 2.1 1.4-.2 1.5.7 1.8 4.6 1.8 6.4 0 7.1-2 2.8-8-1-1.3-2.1-2.1-2.4-1.7-.4.4-1.2.1-1.8-.6-.6-.7-2.6-1.1-4.3-.9zm35.7.7c-1.4 1.7-.8 6.4 1 7.5 2.1 1.3 2 5.8-.1 6.3-1.1.3-1.7 1.3-1.6 2.6.1 2 .6 2.2 7.1 1.9l7-.3.2-5.3c0-2.8-.3-5.2-.8-5.2-.4 0-.8-.6-.8-1.3 0-1.7-4.4-5.9-5.3-5-.4.3-.7.2-.7-.4 0-1.6-4.8-2.2-6-.8zm37-.6c-2.1.5-2.5 1.2-2.5 4.1 0 2.5.5 3.6 1.8 3.8 1.2.3 1.6 1 1.3 2.8-.5 2.5 1.4 4.1 4.4 3.8.8-.1 2.7-.2 4.1-.3 2.2-.1 2.6-.6 2.7-3.1 0-1.7-.4-3-.9-3s-.9-.6-.9-1.3c-.1-1.7-3.9-6.1-4.7-5.4-.3.4-1.1.1-1.7-.6-.7-.8-2.1-1.1-3.6-.8zm24.8.8c-.6.7-1.4 1.1-1.8.8-1.3-.8-5 4.5-4.8 7 .2 2.3.6 2.5 5 2.5 2.7 0 5-.5 5.5-1.3.4-.6 1.8-1.7 3-2.4 3.4-1.9 4.1.1 4.1 11.4 0 5.6.4 10.7.8 11.5.5.7.9 2 .9 2.8 0 1.1 1.3 1.5 5.5 1.5 5 0 5.5-.2 5.1-2-.2-1.1-.6-7.6-.8-14.5-.4-11-.7-12.8-2.5-14.7-1.2-1.2-2.4-2-2.9-1.8-.4.3-.9.1-1.1-.5-.5-1.6-14.7-1.8-16-.3zm35.5-.9l-5.3.3v17.4c0 19.4-.4 18.3 7.4 17.7l4.1-.4-.1-17.4c-.1-9.6-.3-17.5-.5-17.7-.2-.1-2.8-.1-5.6.1zm36.5 2.9c-.5 4.1.2 5.3 2.7 4.9 1.5-.2 2-1.1 2-3.9.1-2.9-.3-3.6-2.1-4-1.9-.3-2.3.1-2.6 3zm-204.9-2c-.1 1-.1 24.1 0 30l.1 4.3h11v-35h-5.5c-3 0-5.5.3-5.6.7zm58.9.9c-1.6.8-2.8 2.1-2.8 2.9 0 .8-.4 1.5-.8 1.5-.5 0-.9 4.8-.9 10.7 0 8.2.4 11.5 1.7 13.8.9 1.6 2.2 3 2.8 3 .5 0 1.4.3 1.8.7.4.5 2 .8 3.6.8 1.5 0 2.8.5 2.8 1.1 0 .5.4.8.9.5 1.5-1 .5-7.8-1.4-9.2-1-.8-1.5-1.4-1-1.4s.4-.5-.3-1.2-1.2-2.2-1.2-3.5c0-1.7.6-2.3 2.3-2.3 3.6 0 3-4.4-.6-4.8-2.6-.3-2.6-.4-1.2-3.2.8-1.5 2-3 2.6-3.2.7-.2 1.3-2.1 1.4-4.1.2-3.6.1-3.7-3.4-3.7-2 .1-4.8.8-6.3 1.6zm35.1-.1c-1.5.8-3 2.5-3.4 3.7-1.2 3.7-1.2 22.1-.1 24.3 1.4 2.4 3.6 4.9 3.6 3.9 0-.5.5-.3 1.2.4s2.4 1.2 3.8 1.2 3.1.5 3.8 1.2c.9.9 1.2.3 1-3-.1-2.6-.8-4.8-1.9-5.8-1-.9-1.6-2.1-1.3-2.5.3-.5 0-.9-.5-.9-1.4 0-1.5-12.7-.1-13.5.6-.4.8-1 .5-1.5-.3-.4.4-1 1.4-1.3 1.4-.3 1.9-1.4 1.9-4.1 0-3.5-.1-3.6-3.6-3.6-2.1.1-4.9.7-6.3 1.5zm83.9-.4c-1.2.6-1.8 2.2-1.8 4.6 0 3 .3 3.4 1.8 2.8.9-.4 2.6-.8 3.7-.9 1.6-.1 2-.9 2.2-3.9.2-3.2-.1-3.7-2-3.7-1.2 0-3 .5-3.9 1.1z"/><path d="M276.6 166.5c-1.3.7-2.7 1.1-3 .7-.3-.3-.6 0-.6.6 0 .7-.7 1.2-1.5 1.2-2.7 0-4.7 3.6-4.9 8.9-.2 2.8.1 5.1.6 5.1.4 0 .8.7.8 1.5s.7 1.5 1.5 1.5 1.5.5 1.5 1c0 .7 2.5 1 6.7.8l6.6-.3.1-3.3c.1-3.7-1.1-5.2-2.5-3.1-.7 1.1-1.4.8-3.6-1.4l-2.8-2.8 2.8-2.5c1.5-1.3 3.5-2.4 4.3-2.4.8 0 1.5-.5 1.5-1 .2-1.3.2-3.8 0-4.8-.2-1.2-4.8-1.1-7.5.3zm-24.8 7.3c-1.1.2-1.5 1.1-1.2 2.6.2 1.3-.4 3.1-1.4 4.2-.9 1-1.7 3-1.7 4.4 0 2.1.5 2.6 3.3 2.8 2.5.3 4.1-.4 6.7-2.6 1.8-1.7 3.1-3.3 2.8-3.6-.3-.3 0-1.2.6-2 .7-.8 1.1-2.5.9-3.8-.2-1.9-.9-2.2-4.3-2.3-2.2-.1-4.8.1-5.7.3zm-95.8 2.8c0 .7.5 1.6 1.1 1.9.5.4.9 1.4.7 2.3-.5 2.2 5.9 7.1 9.3 7.2 1.4 0 3 .5 3.6 1.1.7.7 1.2.3 1.5-1.4.6-3-.4-5.5-3.4-8.7-1.2-1.3-2.3-2.7-2.3-3 0-.3-2.4-.5-5.2-.6-3.7-.1-5.3.3-5.3 1.2zm59.5-.5c-.4.5-.4 1.3-.1 1.8.3.4-.3 1.6-1.4 2.6-1.3 1.1-1.9 2.9-1.8 4.7.2 2.5.6 2.8 3.5 2.8 3.7 0 7.9-3.1 9.6-7 2-4.9 1.6-5.5-4-5.7-2.9-.1-5.5.3-5.8.8z"/></svg>