<svg width="128" height="102" xmlns="http://www.w3.org/2000/svg"><path fill="#fff" d="M-1-1h130v104H-1z"/><g fill="#D5652C"><path d="M126.245 99.78H5.64A2.628 2.628 0 013 97.168V70.78c0-.82.39-1.593 1.05-2.087l19.962-14.89v-5.979c0-.82.39-1.592 1.05-2.086l39.291-29.31a2.663 2.663 0 013.179 0l39.29 29.31a2.603 2.603 0 011.051 2.086v5.98l19.961 14.89a2.603 2.603 0 011.051 2.086v26.388a2.628 2.628 0 01-2.64 2.614zM24.012 60.346L8.28 72.08v22.476h15.73V60.345zm39.075 34.21h5.71V81.39h-5.71v13.167zm39.505-45.43l-36.65-27.34-36.65 27.34v45.43h28.514V78.778c0-1.442 1.183-2.612 2.64-2.612h10.992c1.458 0 2.64 1.17 2.64 2.612v15.779h28.514V49.124zm21.012 22.955l-15.73-11.735v34.21h15.73V72.08zm2.639-19.654a2.644 2.644 0 01-1.588-.527L65.943 8.102 7.23 51.899a2.66 2.66 0 01-3.698-.512 2.594 2.594 0 01.518-3.658L64.353 2.746a2.663 2.663 0 013.179 0l60.302 44.983a2.593 2.593 0 01.52 3.658 2.649 2.649 0 01-2.111 1.04z" fill-rule="evenodd"/><text transform="translate(232.136 300.63) scale(1.5411)" y="-151.927" x="-114.297" font-size="22" font-weight="bold" font-family="Roboto" stroke="null">?</text></g></svg>