<svg xmlns="http://www.w3.org/2000/svg" width="59" height="55">
    <path fill-rule="evenodd" fill="#F26522" d="M3.247 28.61 29.499 4.55l26.255 24.06c.346-.239.772-.088 1.201-.088.511 0 1.018-.222 1.38-.65.664-.062.579-1.981-.179-2.67L30.7.616C30.13 0 28.99 0 28.302.616l-9.784 8.76V5.828c0-2.087-1.641-3.378-3.66-3.378-2.02 0-3.661 1.291-3.661 3.378V15.93L.845 25.202C.84 25.887 0 27.81.663 27.872c.666.787 1.819.872 2.584.738zm18.932 8.26h14.643v18.129h10.982c2.016 0 3.66-1.695 3.66-3.782V32.681a3.817 3.817 0 0 0-1.344-2.925L31.818 14.252a3.574 3.574 0 0 0-2.319-.86c-.824 0-1.648.289-2.32.86L8.877 29.756c-.617.716-1.34 1.788-1.34 2.925v18.536c0 2.087 1.641 3.782 3.66 3.782h10.982V36.87z"/>
</svg>
