<svg xmlns="http://www.w3.org/2000/svg" width="79" height="61">
    <path fill-rule="evenodd" fill="#F26522" d="M77.136 60.999H1.863a1.64 1.64 0 0 1-1.648-1.63V42.898c0-.511.243-.993.656-1.301l12.458-9.294v-3.732c0 .019.243-.994.656-1.302L38.507 8.977c1.443-.438 1.397-.438 1.985 0L65.14 27.269c.287.308.529 1.321.529 1.302v3.732l12.459 9.294c.413.308.656.79.656 1.301v16.471c0 .9-.324 1.63-1.648 1.63zM13.329 36.387l-9.818 7.324v14.027h9.818V36.387zm24.388 21.351h3.564v-8.217h-3.564v8.217zm24.656-28.355L39.499 12.32 16.625 29.383v28.355h17.796v-9.847c0-.901.738-1.631 2.269-1.631h6.239c.911 0 1.648.73 1.648 1.631v9.847h17.796V29.383zM75.488 43.71l-9.819-7.323v21.351h9.819V43.71zm1.646-12.266c-.345 0-.693-.107-.991-.329L39.499 3.781 2.855 31.115c-.726.542-.905.399-2.307-.32C0 30.76.144 29.55.871 28.512L38.507.437C39.95 0 39.904 0 40.492.437l37.636 28.076c.727 1.037.871 2.257.323 2.282a1.648 1.648 0 0 1-1.317.649z"/>
</svg>
