<?xml version="1.0" standalone="no"?>
<!DOCTYPE svg PUBLIC "-//W3C//DTD SVG 20010904//EN"
 "http://www.w3.org/TR/2001/REC-SVG-20010904/DTD/svg10.dtd">
<svg version="1.0" xmlns="http://www.w3.org/2000/svg"
 width="361.000000pt" height="361.000000pt" viewBox="0 0 361.000000 361.000000"
 preserveAspectRatio="xMidYMid meet">
<metadata>
Created by potrace 1.14, written by Peter Selinger 2001-2017
</metadata>
<g transform="translate(0.000000,361.000000) scale(0.100000,-0.100000)"
fill="#000000" stroke="none">
<path d="M681 2401 c-9 -6 9 -25 56 -62 37 -29 70 -56 73 -59 3 -3 34 -28 70
-55 36 -28 71 -56 78 -62 18 -17 32 -16 32 2 0 8 -3 15 -7 15 -5 0 -25 16 -45
35 -21 18 -38 32 -38 29 0 -3 -6 1 -14 8 -7 8 -32 30 -56 49 -23 18 -56 47
-73 62 -44 38 -61 47 -76 38z"/>
<path d="M550 2390 c0 -5 3 -10 8 -10 4 0 23 -15 42 -33 19 -17 60 -51 90 -73
30 -23 67 -53 83 -67 15 -14 27 -23 27 -20 0 3 14 -9 32 -26 33 -32 59 -29 39
6 -6 10 -11 14 -11 10 0 -4 -11 2 -25 15 -13 13 -30 28 -37 33 -7 6 -59 47
-116 93 -96 76 -132 96 -132 72z"/>
<path d="M430 2343 c-19 -15 -41 -33 -48 -40 -7 -7 -17 -13 -21 -13 -5 0 -20
-10 -34 -22 -14 -13 -47 -39 -74 -58 -26 -19 -54 -41 -61 -47 -7 -7 -16 -13
-20 -13 -12 0 -62 -47 -62 -59 0 -16 19 -10 48 17 14 12 29 22 33 22 5 0 9
-97 9 -215 l0 -215 -27 -1 c-16 0 -52 -1 -80 -1 -52 0 -53 -1 -53 -30 0 -16 4
-27 9 -23 5 3 13 0 17 -6 4 -8 9 -7 15 2 5 8 9 10 9 4 0 -6 23 -9 55 -7 l55 4
1 -84 c1 -45 0 -98 -1 -115 -3 -55 6 -68 44 -68 19 0 38 3 41 7 9 9 11 228 2
228 -5 0 -2 7 7 15 20 20 335 22 337 3 0 -7 2 -93 2 -192 2 -169 3 -179 22
-186 11 -3 31 -4 45 -1 l25 6 0 190 c0 175 1 190 18 189 9 -1 17 2 17 8 0 5 6
5 14 1 8 -4 67 -6 131 -3 64 3 119 3 122 0 7 -7 2482 -7 2494 1 6 3 9 17 7 30
l-3 23 -1375 2 c-756 2 -1386 3 -1400 3 l-25 1 0 209 c0 115 3 213 7 216 4 4
17 -4 30 -18 17 -18 28 -23 39 -17 11 8 8 14 -16 34 -16 14 -37 30 -45 38 -8
7 -50 39 -93 71 -42 32 -77 62 -77 68 0 5 -6 9 -12 9 -7 0 -28 14 -47 30 -18
17 -36 30 -40 30 -3 0 -22 -12 -41 -27z m100 -54 c25 -19 47 -36 50 -39 3 -3
25 -21 50 -40 25 -19 47 -38 48 -42 2 -5 10 -8 17 -8 7 0 15 -7 19 -15 4 -12
-4 -15 -38 -15 l-43 0 1 -211 c1 -116 -3 -213 -7 -216 -6 -4 -254 -7 -318 -4
-13 1 -15 27 -15 212 1 230 1 229 -56 223 -20 -2 -25 1 -22 11 3 8 13 17 22
20 10 3 32 19 50 35 17 17 32 28 32 24 0 -4 8 3 19 14 10 12 21 22 25 22 9 0
90 62 94 73 2 4 9 4 15 -1 7 -5 32 -24 57 -43z"/>
<path d="M426 2194 c-31 -30 -17 -80 26 -97 25 -9 78 37 71 63 -3 11 -10 20
-15 20 -5 0 -7 4 -4 9 15 23 -56 28 -78 5z"/>
<path d="M3339 2157 c-1 -12 -2 -33 -3 -47 -1 -18 -7 -26 -23 -28 -20 -3 -23
-10 -23 -43 0 -36 2 -40 23 -37 21 3 22 0 23 -89 1 -53 6 -98 12 -106 7 -8 9
-17 5 -20 -13 -13 40 -57 69 -57 15 0 28 -4 28 -10 0 -14 20 -13 53 3 22 10
27 18 25 42 -2 25 -8 30 -28 30 -49 0 -50 4 -50 199 l0 183 -55 1 c-49 0 -55
-2 -56 -21z"/>
<path d="M943 2082 c-13 -2 -23 -7 -23 -12 0 -5 -6 -7 -14 -4 -12 5 -23 -8
-24 -30 0 -5 -6 -12 -13 -17 -18 -11 -15 -219 3 -231 7 -4 9 -8 4 -8 -5 0 -1
-9 9 -20 10 -11 21 -17 26 -15 4 3 10 1 14 -5 3 -5 16 -10 29 -10 12 0 27 -5
33 -11 8 -8 13 -8 17 0 4 6 26 11 48 11 32 0 47 6 70 30 15 17 25 30 22 30 -4
0 -1 7 7 16 17 21 16 178 -1 199 -7 8 -9 15 -5 15 4 0 -4 12 -18 26 -14 14
-31 23 -37 19 -5 -3 -10 -1 -10 4 0 6 -13 11 -30 11 -28 0 -30 -2 -30 -40 0
-27 4 -39 13 -37 9 1 13 -23 15 -92 2 -78 0 -97 -15 -113 -10 -11 -17 -28 -15
-38 2 -10 -2 -21 -8 -25 -6 -4 -10 5 -10 24 0 16 -5 33 -11 36 -26 17 -49 157
-27 171 4 3 8 14 8 24 0 13 5 17 15 14 9 -4 15 0 16 10 4 53 2 59 -16 65 -11
4 -30 5 -42 3z"/>
<path d="M1275 2082 l-50 -3 1 -142 c2 -161 6 -180 40 -196 31 -14 134 -15
135 -1 1 6 2 17 2 25 0 29 -3 34 -16 29 -7 -2 -21 2 -31 9 -16 12 -18 30 -20
144 0 72 -3 133 -6 135 -3 2 -27 2 -55 0z"/>
<path d="M1637 2070 c-7 -9 -20 -19 -31 -23 -10 -4 -16 -13 -12 -22 3 -8 1
-17 -4 -20 -13 -8 -13 -55 1 -55 5 0 7 -5 4 -10 -3 -6 5 -14 19 -20 14 -5 26
-14 26 -20 0 -5 11 -10 24 -10 14 0 28 -5 32 -11 3 -6 15 -9 25 -6 11 3 19 1
19 -4 0 -5 5 -9 11 -9 6 0 17 -7 25 -15 12 -12 12 -18 2 -35 -7 -11 -19 -18
-25 -15 -9 3 -13 -8 -13 -35 0 -40 16 -62 30 -40 4 7 21 13 36 13 51 0 80 30
90 93 3 24 -50 89 -66 79 -5 -3 -10 -1 -10 4 0 6 -7 11 -15 11 -8 0 -15 5 -15
10 0 6 -11 8 -25 6 -18 -3 -25 0 -25 10 0 8 -5 12 -10 9 -9 -6 -40 17 -40 29
0 3 8 14 18 24 11 11 18 30 17 43 -1 19 -9 25 -39 30 -28 5 -40 2 -49 -11z"/>
<path d="M1773 2082 c-31 -3 -33 -5 -33 -43 0 -36 2 -40 23 -37 16 2 22 -2 21
-14 -2 -15 7 -18 46 -18 64 0 71 20 28 80 -10 13 -21 21 -24 17 -4 -4 -12 -1
-18 6 -6 7 -26 11 -43 9z"/>
<path d="M2130 2075 c-14 -17 -8 -64 10 -75 21 -13 20 -58 -1 -63 -11 -3 -17
-13 -16 -26 1 -20 6 -22 71 -19 l70 3 2 53 c0 28 -3 52 -8 52 -4 0 -8 6 -8 13
0 17 -44 59 -53 50 -4 -3 -7 -2 -7 4 0 16 -48 22 -60 8z"/>
<path d="M2500 2081 c-21 -5 -25 -12 -25 -41 0 -25 5 -36 18 -38 12 -3 16 -10
13 -28 -5 -25 14 -41 44 -38 8 1 27 2 41 3 22 1 26 6 27 31 0 17 -4 30 -9 30
-5 0 -9 6 -9 13 -1 17 -39 61 -47 54 -3 -4 -11 -1 -17 6 -7 8 -21 11 -36 8z"/>
<path d="M2748 2073 c-6 -7 -14 -11 -18 -8 -13 8 -50 -45 -48 -70 2 -23 6 -25
50 -25 27 0 50 5 55 13 4 6 18 17 30 24 34 19 41 -1 41 -114 0 -56 4 -107 8
-115 5 -7 9 -20 9 -28 0 -11 13 -15 55 -15 50 0 55 2 51 20 -2 11 -6 76 -8
145 -4 110 -7 128 -25 147 -12 12 -24 20 -29 18 -4 -3 -9 -1 -11 5 -5 16 -147
18 -160 3z"/>
<path d="M3103 2082 l-53 -3 0 -174 c0 -194 -4 -183 74 -177 l41 4 -1 174 c-1
96 -3 175 -5 177 -2 1 -28 1 -56 -1z"/>
<path d="M3468 2053 c-5 -41 2 -53 27 -49 15 2 20 11 20 39 1 29 -3 36 -21 40
-19 3 -23 -1 -26 -30z"/>
<path d="M1419 2073 c-1 -10 -1 -241 0 -300 l1 -43 55 0 55 0 0 175 0 175 -55
0 c-30 0 -55 -3 -56 -7z"/>
<path d="M2008 2064 c-16 -8 -28 -21 -28 -29 0 -8 -4 -15 -8 -15 -5 0 -9 -48
-9 -107 0 -82 4 -115 17 -138 9 -16 22 -30 28 -30 5 0 14 -3 18 -7 4 -5 20 -8
36 -8 15 0 28 -5 28 -11 0 -5 4 -8 9 -5 15 10 5 78 -14 92 -10 8 -15 14 -10
14 5 0 4 5 -3 12 -7 7 -12 22 -12 35 0 17 6 23 23 23 36 0 30 44 -6 48 -26 3
-26 4 -12 32 8 15 20 30 26 32 7 2 13 21 14 41 2 36 1 37 -34 37 -20 -1 -48
-8 -63 -16z"/>
<path d="M2359 2065 c-15 -8 -30 -25 -34 -37 -12 -37 -12 -221 -1 -243 14 -24
36 -49 36 -39 0 5 5 3 12 -4 7 -7 24 -12 38 -12 14 0 31 -5 38 -12 9 -9 12 -3
10 30 -1 26 -8 48 -19 58 -10 9 -16 21 -13 25 3 5 0 9 -5 9 -14 0 -15 127 -1
135 6 4 8 10 5 15 -3 4 4 10 14 13 14 3 19 14 19 41 0 35 -1 36 -36 36 -21 -1
-49 -7 -63 -15z"/>
<path d="M3198 2069 c-12 -6 -18 -22 -18 -46 0 -30 3 -34 18 -28 9 4 26 8 37
9 16 1 20 9 22 39 2 32 -1 37 -20 37 -12 0 -30 -5 -39 -11z"/>
<path d="M2766 1945 c-13 -7 -27 -11 -30 -7 -3 3 -6 0 -6 -6 0 -7 -7 -12 -15
-12 -27 0 -47 -36 -49 -89 -2 -28 1 -51 6 -51 4 0 8 -7 8 -15 0 -8 7 -15 15
-15 8 0 15 -5 15 -10 0 -7 25 -10 67 -8 l66 3 1 33 c1 37 -11 52 -25 31 -7
-11 -14 -8 -36 14 l-28 28 28 25 c15 13 35 24 43 24 8 0 15 5 15 10 2 13 2 38
0 48 -2 12 -48 11 -75 -3z"/>
<path d="M2518 1872 c-11 -2 -15 -11 -12 -26 2 -13 -4 -31 -14 -42 -9 -10 -17
-30 -17 -44 0 -21 5 -26 33 -28 25 -3 41 4 67 26 18 17 31 33 28 36 -3 3 0 12
6 20 7 8 11 25 9 38 -2 19 -9 22 -43 23 -22 1 -48 -1 -57 -3z"/>
<path d="M1560 1844 c0 -7 5 -16 11 -19 5 -4 9 -14 7 -23 -5 -22 59 -71 93
-72 14 0 30 -5 36 -11 7 -7 12 -3 15 14 6 30 -4 55 -34 87 -12 13 -23 27 -23
30 0 3 -24 5 -52 6 -37 1 -53 -3 -53 -12z"/>
<path d="M2155 1849 c-4 -5 -4 -13 -1 -18 3 -4 -3 -16 -14 -26 -13 -11 -19
-29 -18 -47 2 -25 6 -28 35 -28 37 0 79 31 96 70 20 49 16 55 -40 57 -29 1
-55 -3 -58 -8z"/>
</g>
</svg>
