<svg width="128" height="102" xmlns="http://www.w3.org/2000/svg">
 <!-- Created with SVG Editor - http://github.com/mzalive/SVG Editor/ -->

 <g>
  <title>background</title>
  <rect fill="#fff" id="canvas_background" height="104" width="130" y="-1" x="-1"/>
  <g display="none" overflow="visible" y="0" x="0" height="100%" width="100%" id="canvasGrid">
   <rect fill="url(#gridpattern)" stroke-width="0" y="0" x="0" height="100%" width="100%"/>
  </g>
 </g>
 <g>
  <title>Layer 1</title>
  <g id="svg_5">
   <path id="svg_4" d="m126.244593,99.78071l-120.604058,0a2.627679,2.627679 0 0 1 -2.640497,-2.613259l0,-26.388947c0,-0.820349 0.389345,-1.59263 1.049469,-2.086121l19.962349,-14.889647l0,-5.979572c0,-0.820349 0.389345,-1.59263 1.051072,-2.086121l39.29021,-29.309837a2.662928,2.662928 0 0 1 3.178851,0l39.29021,29.309837c0.661726,0.493491 1.051072,1.265772 1.051072,2.086121l0,5.979572l19.960747,14.889647c0.661726,0.493491 1.051072,1.265772 1.051072,2.086121l0,26.388947a2.627679,2.627679 0 0 1 -2.640497,2.613259zm-102.232736,-39.436014l-15.730825,11.73483l0,22.476269l15.730825,0l0,-34.211099zm39.07551,34.211099l5.710395,0l0,-13.167235l-5.710395,0l0,13.167235zm39.504911,-45.431609l-36.649713,-27.339077l-36.649713,27.339077l0,45.431609l28.513522,0l0,-15.778892c0,-1.442019 1.182456,-2.611657 2.640497,-2.611657l10.991389,0c1.458041,0 2.640497,1.169638 2.640497,2.611657l0,15.778892l28.513522,0l0,-45.431609zm21.011819,22.95534l-15.730825,-11.73483l0,34.211099l15.730825,0l0,-22.476269zm2.638895,-19.653116a2.643701,2.643701 0 0 1 -1.587823,-0.527138l-58.712604,-43.797321l-58.712604,43.797321a2.659724,2.659724 0 0 1 -3.697978,-0.512718a2.594032,2.594032 0 0 1 0.517525,-3.657921l60.303631,-44.982981a2.662928,2.662928 0 0 1 3.178851,0l60.302029,44.982981c1.164831,0.868416 1.397156,2.505909 0.519127,3.657921a2.648508,2.648508 0 0 1 -2.110154,1.039856z" fill="#D5652C" fill-rule="evenodd"/>
  </g>
  <g stroke="null" id="svg_10">
   <text stroke="null" transform="matrix(1.541107381526444,0,0,1.541107381526444,232.1361997159612,300.629806725024) " id="svg_9" y="-151.92688" x="-114.296984" font-size="22px" font-weight="bold" fill="rgb(213, 101, 44)" font-family="Roboto">?</text>
  </g>
 </g>
</svg>