<svg xmlns="http://www.w3.org/2000/svg" width="24" height="24">
    <path fill-rule="evenodd" fill="#FFF" d="M11.999 0A11.964 11.964 0 0 0 0 11.999c0 6.655 5.345 12 11.999 12 6.655 0 12-5.345 12-12A11.965 11.965 0 0 0 11.999 0zm6.928 8.236-8.728 9.054c.701.109-.218.164-.381.164-.164 0-.328-.055-.382-.164l-4.255-4.582.539-.109c-.757-.109-.811-.272-.811-.381 0-.11.054-.273.811-.382l.116-.116c.704-.866.545-.866.763 0l.055-.594 3 3.219c.109.109.273.109.706 0l6.985-7.582h.054a.528.528 0 0 1 .764 0l.764.764c.218.163.218.653 0 .709z"/>
</svg>
